<mxfile host="Electron" modified="2024-01-28T21:50:19.398Z" agent="Mozilla/5.0 (Windows NT 10.0; Win64; x64) AppleWebKit/537.36 (KHTML, like Gecko) draw.io/22.1.2 Chrome/114.0.5735.289 Electron/25.9.4 Safari/537.36" etag="5dQfqvgSeGkuhD6x0SjF" version="22.1.2" type="device">
  <diagram name="Initially" id="NcxANpbiZuNS4Cefm77z">
    <mxGraphModel dx="2633" dy="1004" grid="1" gridSize="2" guides="1" tooltips="1" connect="1" arrows="1" fold="1" page="1" pageScale="1" pageWidth="1169" pageHeight="827" math="1" shadow="0">
      <root>
        <mxCell id="0" />
        <mxCell id="1" parent="0" />
        <mxCell id="F8h-copUE96BRGaExy5S-1" value="" style="edgeStyle=orthogonalEdgeStyle;rounded=0;orthogonalLoop=1;jettySize=auto;html=1;dashed=1;dashPattern=1 1;endArrow=blockThin;endFill=1;" edge="1" parent="1" source="vpCdLgnJ_9eggc7-kFgu-11" target="ypyuWPcpq9SquC7dp3np-94">
          <mxGeometry relative="1" as="geometry" />
        </mxCell>
        <UserObject label="Model &lt;br&gt;Development" tooltip="Model training &amp; evaluation.  The training stage includes hyperparameter tuning." id="vpCdLgnJ_9eggc7-kFgu-11">
          <mxCell style="sketch=0;outlineConnect=0;fontColor=#232F3E;gradientColor=none;fillColor=#000000;strokeColor=none;dashed=0;verticalLabelPosition=bottom;verticalAlign=top;align=center;html=1;fontSize=12;fontStyle=0;aspect=fixed;pointerEvents=1;shape=mxgraph.aws4.sagemaker_model;fontFamily=Verdana;" parent="1" vertex="1">
            <mxGeometry x="-466.5" y="477" width="78" height="78" as="geometry" />
          </mxCell>
        </UserObject>
        <mxCell id="vpCdLgnJ_9eggc7-kFgu-16" value="" style="edgeStyle=orthogonalEdgeStyle;rounded=0;orthogonalLoop=1;jettySize=auto;html=1;dashed=1;dashPattern=1 4;endArrow=blockThin;endFill=1;fontFamily=Verdana;" parent="1" source="vpCdLgnJ_9eggc7-kFgu-12" target="vpCdLgnJ_9eggc7-kFgu-14" edge="1">
          <mxGeometry relative="1" as="geometry" />
        </mxCell>
        <UserObject label="&lt;span style=&quot;background-color: rgb(255, 255, 255);&quot;&gt;Data &lt;br&gt;Collection&lt;/span&gt;" tooltip="Data collection; this might be from multiple external sources." id="vpCdLgnJ_9eggc7-kFgu-12">
          <mxCell style="verticalLabelPosition=middle;sketch=0;html=1;fillColor=#000000;strokeColor=#ffffff;verticalAlign=middle;align=center;points=[[0,0.5,0],[0.125,0.25,0],[0.25,0,0],[0.5,0,0],[0.75,0,0],[0.875,0.25,0],[1,0.5,0],[0.875,0.75,0],[0.75,1,0],[0.5,1,0],[0.125,0.75,0]];pointerEvents=1;shape=mxgraph.cisco_safe.compositeIcon;bgIcon=mxgraph.cisco_safe.design.blank_device;resIcon=mxgraph.cisco_safe.design.flow_collector_2;rotation=90;fontFamily=Verdana;labelPosition=right;horizontal=0;" parent="1" vertex="1">
            <mxGeometry x="-743.5" y="493.5" width="50" height="45" as="geometry" />
          </mxCell>
        </UserObject>
        <mxCell id="vpCdLgnJ_9eggc7-kFgu-14" value="Data &lt;br&gt;Processing" style="sketch=0;html=1;aspect=fixed;strokeColor=none;shadow=0;fillColor=#000000;verticalAlign=top;labelPosition=center;verticalLabelPosition=bottom;shape=mxgraph.gcp2.process;rotation=0;fontFamily=Verdana;" parent="1" vertex="1">
          <mxGeometry x="-652.42" y="490.5" width="42.84" height="51" as="geometry" />
        </mxCell>
        <mxCell id="F8h-copUE96BRGaExy5S-7" value="" style="edgeStyle=orthogonalEdgeStyle;rounded=0;orthogonalLoop=1;jettySize=auto;html=1;" edge="1" parent="1" source="vpCdLgnJ_9eggc7-kFgu-19" target="F8h-copUE96BRGaExy5S-6">
          <mxGeometry relative="1" as="geometry" />
        </mxCell>
        <mxCell id="F8h-copUE96BRGaExy5S-8" value="NO" style="edgeLabel;html=1;align=center;verticalAlign=middle;resizable=0;points=[];" vertex="1" connectable="0" parent="F8h-copUE96BRGaExy5S-7">
          <mxGeometry x="-0.1085" y="-1" relative="1" as="geometry">
            <mxPoint as="offset" />
          </mxGeometry>
        </mxCell>
        <mxCell id="vpCdLgnJ_9eggc7-kFgu-19" value="&lt;font color=&quot;#ffffff&quot; style=&quot;font-size: 10px;&quot;&gt;Feasible?&lt;/font&gt;" style="rhombus;whiteSpace=wrap;html=1;rotation=0;fillColor=#333333;strokeColor=none;fontFamily=Verdana;opacity=60;fontSize=10;" parent="1" vertex="1">
          <mxGeometry x="-817" y="380" width="60" height="60" as="geometry" />
        </mxCell>
        <mxCell id="vpCdLgnJ_9eggc7-kFgu-20" value="" style="edgeStyle=orthogonalEdgeStyle;endArrow=classic;html=1;rounded=0;endSize=8;startSize=8;sourcePerimeterSpacing=0;targetPerimeterSpacing=0;entryX=0.5;entryY=1;entryDx=0;entryDy=0;entryPerimeter=0;exitX=0.5;exitY=1;exitDx=0;exitDy=0;fontFamily=Verdana;" parent="1" source="vpCdLgnJ_9eggc7-kFgu-19" target="vpCdLgnJ_9eggc7-kFgu-12" edge="1">
          <mxGeometry width="100" relative="1" as="geometry">
            <mxPoint x="-833" y="443" as="sourcePoint" />
            <mxPoint x="-733" y="483" as="targetPoint" />
          </mxGeometry>
        </mxCell>
        <mxCell id="vpCdLgnJ_9eggc7-kFgu-21" value="YES" style="edgeLabel;html=1;align=center;verticalAlign=middle;resizable=0;points=[];fontFamily=Verdana;" parent="vpCdLgnJ_9eggc7-kFgu-20" vertex="1" connectable="0">
          <mxGeometry x="-0.3505" y="-1" relative="1" as="geometry">
            <mxPoint as="offset" />
          </mxGeometry>
        </mxCell>
        <mxCell id="ypyuWPcpq9SquC7dp3np-91" value="" style="edgeStyle=orthogonalEdgeStyle;rounded=0;orthogonalLoop=1;jettySize=auto;html=1;fontFamily=Verdana;dashed=1;dashPattern=1 4;endArrow=blockThin;endFill=1;" parent="1" source="vpCdLgnJ_9eggc7-kFgu-14" target="ypyuWPcpq9SquC7dp3np-90" edge="1">
          <mxGeometry relative="1" as="geometry">
            <Array as="points">
              <mxPoint x="-583.5" y="516" />
            </Array>
            <mxPoint x="-608" y="516" as="sourcePoint" />
            <mxPoint x="-466" y="516" as="targetPoint" />
          </mxGeometry>
        </mxCell>
        <mxCell id="ypyuWPcpq9SquC7dp3np-92" style="edgeStyle=none;rounded=0;orthogonalLoop=1;jettySize=auto;html=1;endArrow=blockThin;endFill=1;dashed=1;dashPattern=1 4;" parent="1" source="ypyuWPcpq9SquC7dp3np-90" target="vpCdLgnJ_9eggc7-kFgu-11" edge="1">
          <mxGeometry relative="1" as="geometry">
            <Array as="points">
              <mxPoint x="-493" y="516" />
            </Array>
          </mxGeometry>
        </mxCell>
        <mxCell id="ypyuWPcpq9SquC7dp3np-90" value="Features &lt;br&gt;Engineering" style="editableCssRules=.*;html=1;shape=image;verticalLabelPosition=bottom;labelBackgroundColor=#ffffff;verticalAlign=top;aspect=fixed;imageAspect=0;image=data:image/svg+xml,PHN2ZyB4bWxucz0iaHR0cDovL3d3dy53My5vcmcvMjAwMC9zdmciIHhtbG5zOnY9Imh0dHBzOi8vdmVjdGEuaW8vbmFubyIgd2lkdGg9IjM2Mi4yMjI0NzgzNzUzNTMxNSIgaGVpZ2h0PSIzNzcuMzU5NDg0NzI1NTkyNSIgdmlld0JveD0iNjcuMzQ3OTk5NTcyNzUzOSAxMDguNjg4MDAzNTQwMDM5MDYgOTUuODM4MDA1MDY1OTE3OTcgOTkuODQzMDAyMzE5MzM1OTQiPiYjeGE7PHN0eWxlIHR5cGU9InRleHQvY3NzIj4uc3QwIHsgZmlsbDogcmdiKDQwLCA0MCwgNDApOyB9IC5zdDEgeyBmaWxsOiByZ2IoNTEsIDUxLCA1MSk7IH0gLnN0MiB7IGZpbGw6IHJnYigwLCAwLCAwKTsgfSA8L3N0eWxlPiYjeGE7CTxwYXRoIGNsYXNzPSJzdDAiIGQ9Ik05Ni4xOTkgMTczLjgwMXYyNS45OWwxOS4xODEgOC43NHYtMjUuOTI2em00Ljc3MSA4LjY2Mmw5LjY3MyA0LjQwOHYxMi45ODVsLTkuNjczLTQuMzc1em0tNC43NzEtMzguOTY5djIxLjY4NmwxOS4xODEgOC43MzJ2LTIxLjY4NGwtNC43MzctMi4wOTV2MTUuMDZsLTkuNjczLTQuMzk1di0xNS4xN3pNNjcuMzQ4IDEzMC4zMnY1Ni41NWwxOS4xMTQgOC43ODN2LTU2LjY1OGwtNC43MzQtMi4xMjd2NDkuOTA4bC05LjU1My00LjM4MVYxMzIuNDl6Ii8+JiN4YTsJPHBhdGggY2xhc3M9InN0MSIgZD0iTTk2LjExNiAxMTcuMzE2bDE5LjI2NC04LjYyOCA0Ny44MDYgMjEuNzYzLTE4Ljc5IDguNjMyem0xOS4yNjQgMzQuOTEybC0xOS4xODEtOC43NDYgMTkuMTgxLTguNzM5IDE5LjIxNSA4Ljc1OXpNODYuNDYyIDEzOS4wNmwtMTkuMTE0LTguNzQ2IDE5LjExNC04LjczOSAxOS4zNjIgOC43NTl6Ii8+JiN4YTsJPHBhdGggY2xhc3M9InN0MiIgZD0iTTE0NC4zOTYgMTYwLjYxM3YtMjEuNTNsMTguNzktOC42MzJ2MjEuNjU3ek0xMTUuMzggMTgyLjUzbDQ3LjgwNi0yMS43MTJ2MjUuOTA0bC00Ny44MDYgMjEuNjI2em0wLTguNjE4di0yMS42ODRsMTkuMjE1LTguNzMydjIxLjU0NXoiLz4mI3hhOzwvc3ZnPg==;" parent="1" vertex="1">
          <mxGeometry x="-555" y="496" width="38" height="40" as="geometry" />
        </mxCell>
        <mxCell id="F8h-copUE96BRGaExy5S-2" value="" style="edgeStyle=orthogonalEdgeStyle;rounded=0;orthogonalLoop=1;jettySize=auto;html=1;dashed=1;dashPattern=1 1;endArrow=blockThin;endFill=1;" edge="1" parent="1" source="ypyuWPcpq9SquC7dp3np-94" target="ypyuWPcpq9SquC7dp3np-96">
          <mxGeometry relative="1" as="geometry" />
        </mxCell>
        <mxCell id="ypyuWPcpq9SquC7dp3np-94" value="Deploy" style="sketch=0;html=1;dashed=0;whitespace=wrap;fillColor=#282828;strokeColor=#ffffff;points=[[0.005,0.63,0],[0.1,0.2,0],[0.9,0.2,0],[0.5,0,0],[0.995,0.63,0],[0.72,0.99,0],[0.5,1,0],[0.28,0.99,0]];verticalLabelPosition=bottom;align=center;verticalAlign=top;shape=mxgraph.kubernetes.icon;prIcon=deploy" parent="1" vertex="1">
          <mxGeometry x="-331" y="492" width="50" height="48" as="geometry" />
        </mxCell>
        <mxCell id="ypyuWPcpq9SquC7dp3np-96" value="Monitor &amp;amp; Act" style="sketch=0;aspect=fixed;pointerEvents=1;shadow=0;dashed=0;html=1;strokeColor=none;labelPosition=center;verticalLabelPosition=bottom;verticalAlign=top;align=center;fillColor=#282828;shape=mxgraph.mscae.enterprise.monitor_running_apps" parent="1" vertex="1">
          <mxGeometry x="-227" y="496.5" width="50" height="39" as="geometry" />
        </mxCell>
        <mxCell id="F8h-copUE96BRGaExy5S-3" value="Project Scope Document&lt;br&gt;&lt;div style=&quot;&quot;&gt;&lt;span style=&quot;background-color: initial;&quot;&gt;&lt;font style=&quot;font-size: 13px;&quot;&gt;THE MACHINE LEARNING DESIGN DOCUMENT&lt;/font&gt;&lt;/span&gt;&lt;/div&gt;" style="text;html=1;strokeColor=none;fillColor=none;align=left;verticalAlign=middle;whiteSpace=wrap;rounded=0;fontFamily=Verdana;fontSize=23;fontStyle=1;fontColor=#282828;" vertex="1" parent="1">
          <mxGeometry x="-834" y="158" width="202" height="104" as="geometry" />
        </mxCell>
        <mxCell id="F8h-copUE96BRGaExy5S-6" value="terminate" style="html=1;dashed=0;whiteSpace=wrap;shape=mxgraph.dfd.start;fillColor=#282828;strokeColor=none;opacity=60;fontFamily=Verdana;fontColor=#FFFFFF;fontSize=10;" vertex="1" parent="1">
          <mxGeometry x="-671" y="395" width="80" height="30" as="geometry" />
        </mxCell>
        <mxCell id="F8h-copUE96BRGaExy5S-10" value="" style="edgeStyle=orthogonalEdgeStyle;rounded=0;orthogonalLoop=1;jettySize=auto;html=1;" edge="1" parent="1" source="F8h-copUE96BRGaExy5S-9" target="vpCdLgnJ_9eggc7-kFgu-19">
          <mxGeometry relative="1" as="geometry" />
        </mxCell>
        <mxCell id="F8h-copUE96BRGaExy5S-9" value="" style="html=1;dashed=0;whiteSpace=wrap;rounded=1;fillColor=#282828;strokeColor=none;opacity=60;" vertex="1" parent="1">
          <mxGeometry x="-837" y="271" width="100" height="50" as="geometry" />
        </mxCell>
        <mxCell id="F8h-copUE96BRGaExy5S-28" value="" style="edgeStyle=orthogonalEdgeStyle;rounded=0;orthogonalLoop=1;jettySize=auto;html=1;fontFamily=Verdana;fontSize=10;" edge="1" parent="1" source="F8h-copUE96BRGaExy5S-11" target="F8h-copUE96BRGaExy5S-12">
          <mxGeometry relative="1" as="geometry" />
        </mxCell>
        <mxCell id="F8h-copUE96BRGaExy5S-37" value="YES" style="edgeLabel;html=1;align=center;verticalAlign=middle;resizable=0;points=[];" vertex="1" connectable="0" parent="F8h-copUE96BRGaExy5S-28">
          <mxGeometry x="-0.105" relative="1" as="geometry">
            <mxPoint y="-1" as="offset" />
          </mxGeometry>
        </mxCell>
        <mxCell id="F8h-copUE96BRGaExy5S-35" value="" style="edgeStyle=orthogonalEdgeStyle;rounded=0;orthogonalLoop=1;jettySize=auto;html=1;" edge="1" parent="1" source="F8h-copUE96BRGaExy5S-11" target="F8h-copUE96BRGaExy5S-14">
          <mxGeometry relative="1" as="geometry" />
        </mxCell>
        <mxCell id="F8h-copUE96BRGaExy5S-36" value="&lt;font style=&quot;font-size: 10px;&quot; face=&quot;Verdana&quot;&gt;NO&lt;/font&gt;" style="edgeLabel;html=1;align=center;verticalAlign=middle;resizable=0;points=[];spacingBottom=8;" vertex="1" connectable="0" parent="F8h-copUE96BRGaExy5S-35">
          <mxGeometry x="-0.1019" y="2" relative="1" as="geometry">
            <mxPoint as="offset" />
          </mxGeometry>
        </mxCell>
        <mxCell id="F8h-copUE96BRGaExy5S-11" value="Budget?" style="shape=rhombus;html=1;dashed=0;whiteSpace=wrap;perimeter=rhombusPerimeter;fillColor=#282828;strokeColor=none;opacity=60;fontColor=#FFFFFF;fontFamily=Verdana;fontSize=10;labelPosition=center;verticalLabelPosition=middle;align=center;verticalAlign=middle;" vertex="1" parent="1">
          <mxGeometry x="-990" y="148" width="60" height="50" as="geometry" />
        </mxCell>
        <mxCell id="F8h-copUE96BRGaExy5S-18" value="" style="edgeStyle=orthogonalEdgeStyle;rounded=0;orthogonalLoop=1;jettySize=auto;html=1;" edge="1" parent="1" source="F8h-copUE96BRGaExy5S-12" target="F8h-copUE96BRGaExy5S-15">
          <mxGeometry relative="1" as="geometry" />
        </mxCell>
        <mxCell id="F8h-copUE96BRGaExy5S-19" value="NO" style="edgeLabel;html=1;align=center;verticalAlign=middle;resizable=0;points=[];" vertex="1" connectable="0" parent="F8h-copUE96BRGaExy5S-18">
          <mxGeometry x="-0.2778" relative="1" as="geometry">
            <mxPoint y="-1" as="offset" />
          </mxGeometry>
        </mxCell>
        <mxCell id="F8h-copUE96BRGaExy5S-27" value="" style="edgeStyle=orthogonalEdgeStyle;rounded=0;orthogonalLoop=1;jettySize=auto;html=1;" edge="1" parent="1" source="F8h-copUE96BRGaExy5S-12" target="F8h-copUE96BRGaExy5S-9">
          <mxGeometry relative="1" as="geometry">
            <Array as="points">
              <mxPoint x="-896" y="296" />
              <mxPoint x="-896" y="296" />
            </Array>
          </mxGeometry>
        </mxCell>
        <mxCell id="F8h-copUE96BRGaExy5S-31" value="YES" style="edgeLabel;html=1;align=center;verticalAlign=middle;resizable=0;points=[];spacingBottom=8;fontFamily=Verdana;fontSize=10;" vertex="1" connectable="0" parent="F8h-copUE96BRGaExy5S-27">
          <mxGeometry x="-0.1503" y="-1" relative="1" as="geometry">
            <mxPoint x="-1" as="offset" />
          </mxGeometry>
        </mxCell>
        <mxCell id="F8h-copUE96BRGaExy5S-12" value="Plausible budget, timebox?&amp;nbsp;" style="shape=rhombus;html=1;dashed=0;whiteSpace=wrap;perimeter=rhombusPerimeter;fillColor=#282828;strokeColor=none;opacity=60;fontColor=#282828;fontFamily=Verdana;fontSize=10;labelPosition=center;verticalLabelPosition=bottom;align=center;verticalAlign=top;" vertex="1" parent="1">
          <mxGeometry x="-990" y="271" width="60" height="50" as="geometry" />
        </mxCell>
        <mxCell id="F8h-copUE96BRGaExy5S-14" value="terminate" style="html=1;dashed=0;whiteSpace=wrap;shape=mxgraph.dfd.start;fillColor=#282828;strokeColor=none;opacity=60;fontFamily=Verdana;fontColor=#FFFFFF;fontSize=10;" vertex="1" parent="1">
          <mxGeometry x="-1142" y="158" width="80" height="30" as="geometry" />
        </mxCell>
        <mxCell id="F8h-copUE96BRGaExy5S-15" value="terminate" style="html=1;dashed=0;whiteSpace=wrap;shape=mxgraph.dfd.start;fillColor=#282828;strokeColor=none;opacity=60;fontFamily=Verdana;fontColor=#FFFFFF;fontSize=10;" vertex="1" parent="1">
          <mxGeometry x="-1146" y="280.5" width="80" height="31" as="geometry" />
        </mxCell>
        <mxCell id="F8h-copUE96BRGaExy5S-26" value="" style="edgeStyle=orthogonalEdgeStyle;rounded=0;orthogonalLoop=1;jettySize=auto;html=1;" edge="1" parent="1" source="F8h-copUE96BRGaExy5S-25" target="F8h-copUE96BRGaExy5S-11">
          <mxGeometry relative="1" as="geometry" />
        </mxCell>
        <mxCell id="F8h-copUE96BRGaExy5S-25" value="start" style="html=1;dashed=0;whiteSpace=wrap;shape=mxgraph.dfd.start;fontFamily=Verdana;fontSize=10;fillColor=#282828;strokeColor=none;opacity=60;fontColor=#FFFFFF;" vertex="1" parent="1">
          <mxGeometry x="-1000" y="44" width="80" height="30" as="geometry" />
        </mxCell>
      </root>
    </mxGraphModel>
  </diagram>
</mxfile>
